<?xml version="1.0" encoding="UTF-8"?>
<svg id="Layer_1" data-name="Layer 1" xmlns="http://www.w3.org/2000/svg" viewBox="0 0 2481.79 618.78">
  <defs>
    <style>
      .cls-1 {
        fill: #f2f2f2;
      }
    </style>
  </defs>
  <rect class="cls-1" x="2108.49" y="418.48" width="11.44" height="17.79"/>
  <g>
    <g>
      <path class="cls-1" d="M1207.02,347.96c-.13.63-1.95,3.45-2.54,3.81-5.51,3.33-56-.74-66.13.02l-2.24-4.11-.36-259,1.22-5.13,121.37-.63,43.39,101.78,43.87-102.3,113.87-.7c4.04-.33,6.96,1.46,6.98,5.73l-.31,261.56c-1.21,3.43-3.64,3.21-6.66,3.51-12.11,1.2-45.72,1.55-57.35-.01-1.68-.23-5.66-1.63-5.66-3.24v-206.48l-55.85,132.56c-1.33,2.03-4.86,2-7.03,2.19-21.18,1.79-44.77-1.49-66.23.01l-3.85-1.24-56.48-132.25v203.94Z"/>
      <g>
        <path class="cls-1" d="M731.5,179.6v-35.58h-146.22v146.13h146.22v-34.94c0-.49,2.48-2.61,3.45-2.92,21.41,1.2,42.86,5.19,64.28,7.37,2.02.77,2.12,4.98,2.26,6.93,1.1,15.03-.7,31.62-.32,46.81-13,13.11-25.33,27.77-40.06,38.75l-204.38.21c-15.72-10.62-29.25-26.58-42.09-40.53l-.49-188.69c.1-2.53,1.72-3.98,3.08-5.82,8.8-11.84,26.92-22.49,36.29-34.89h209.74c12.18,12.81,25.69,24.59,37.6,37.39l.31,51.27c-.71,2.14-2.11,2.95-4.24,3.38-18.83,3.83-40.89,3.16-59.99,7.33l-5.44-2.19Z"/>
        <path class="cls-1" d="M828.76,81.76h64.84c.13,0,1.91,1.77,1.91,1.91v204.58c0,.13,1.77,1.91,1.91,1.91h142.4c.13,0,1.91-1.77,1.91-1.91V83.67c0-.13,1.77-1.91,1.91-1.91h64.84c.22,0,2.24,1.96,2.52,2.56l.63,226.77c-12.06,14.4-26.36,28.28-40.59,40.76l-202.79.49c-2.53-.1-3.98-1.71-5.82-3.08-12.06-8.96-23.41-25.92-35.64-35.53-2.84-74.65-.31-150.1-1.28-225.05-.31-3.09.83-5.15,3.25-6.91Z"/>
      </g>
    </g>
    <g>
      <path d="M337.34,222.8c.85,0,1.7,0,2.54,0l61.07,62.9-74.43,75.58c-29.55-29.36-58.88-58.93-88.34-88.38-1.36-1.36-3.61-1.58-3.84-1.82s-.46-2.48-1.82-3.84c-14.73-14.73-29.88-29.09-43.95-44.44,49.57-.21,99.19.05,148.76,0Z"/>
      <path class="cls-1" d="M188.58,222.8c14.07,15.36,29.22,29.72,43.95,44.44,1.36,1.36,1.58,3.61,1.82,3.84l-89.46,90.12-74.6-75.51,1.9-3.24,59.18-58.39,2.54-1.27c18.21-.06,36.47.08,54.67,0Z"/>
      <g>
        <path d="M283.94,71.59c-14.5,15.78-30.07,30.56-45.23,45.71-1.36,1.36-1.58,3.61-1.82,3.84s-2.48.46-3.84,1.82c-33.17,33.15-66.5,66.18-99.14,99.83l-2.54,1.27-97.9-1.27v-51.46l100.07-99.49c50.12-.3,100.29-.49,150.41-.26Z"/>
        <path class="cls-1" d="M283.94,71.59c18.19.08,36.48-.62,54.65.66l99.2,99.09v51.46c-32.62.02-65.29-.03-97.9,0-.85,0-1.7,0-2.54,0l-100.45-101.65c.24-.24.46-2.48,1.82-3.84,15.16-15.15,30.73-29.93,45.23-45.71Z"/>
      </g>
    </g>
    <g>
      <path class="cls-1" d="M2332.9,352.41c-1.23-.26-3.59-2.1-4.17-3.46l-18-70.95-118.15-.4-19.16,72.98-2.23,1.58-141.9-.02c-33.27-29.79-63.79-62.51-95.58-93.87l-2.48-1.06-56.68,7.52c-1.73,25.62,2.32,54.22.07,79.48-.25,2.82-.3,5.53-2.59,7.58l-66.8-.62-.73-267.63,5.77-1.86h239.19s5.08,1.27,5.08,1.27l37.23,36.49v89.81s-76.03,39.51-76.03,39.51l84.49,83.32,65.44-249.75,179.83.55,65.28,260.31c.79,1.75.68,9.21-1.58,9.21h-76.29ZM2020.76,142.75h-145.58c-.13,0-1.91,1.77-1.91,1.91v57.81l147.49-18.42v-41.3ZM2208.93,215.18h86.46l-17.43-70.86c-.21-1.73-.85-1.5-2.23-1.65-5.18-.56-47.01-.69-49.05.67l-17.75,71.84Z"/>
      <path class="cls-1" d="M1730.23,81.76c9.74,9.75,19.53,19.45,29.21,29.26,2.92,2.96,6.95,3.71,8.03,8.5l.03,70.64-2.37,2.71-30.43,14.67c6.13,2.89,45.62,18.93,46.83,22.46l.27,79.92-1.27,3.81c-12.23,9.61-23.58,26.58-35.64,35.53-1.84,1.36-3.29,2.97-5.82,3.08l-243.39-.58c-.6-.28-2.56-2.3-2.56-2.52V83.67c0-.13,1.77-1.91,1.91-1.91h235.22ZM1563.03,144.02v41.93h134.77v-41.93h-134.77ZM1711.79,248.22h-148.76v41.93h148.76v-41.93Z"/>
    </g>
  </g>
  <g>
    <path class="cls-1" d="M1894.88,445.17v10.17h-17.8c-1.83,10.5,6.52,15.41,7.63,26.04,1.66,15.81-6.93,30.82-23.08,34.13-8.93,1.83-26.51-2.37-30.94,3.37-14.62,18.91,38.96,13.16,45.64,14.08,20.81,2.86,25.23,29.29,8.3,41.1-14.19,9.9-58.72,11.27-69.15-4.43-6.74-10.15-3.08-26.22,9.47-29.18-.16-4-4.77-5.24-6.45-9.43-3.53-8.8,3.34-16.08,10.24-20.42-26.4-23.36-9.26-59.27,26.07-56.52,2.42.19,11.67,2.97,12.09,2.52.48-.52.84-11.44,7-11.44h20.98ZM1848.86,463.24c-18.56,1-22.62,14.36-20.02,30.77,2.81,17.8,48.1,22.26,44.28-12.5-1.41-12.84-11.88-18.94-24.26-18.28ZM1826.62,547.21c-3.27,3.53-3.87,11.4-1.98,15.81,5.25,12.23,45.9,11.04,54.89,2.13,7.61-7.55,4.03-20.36-6.98-22.06-6.98-1.08-28.25-.91-35.52-.08-3.04.35-8.39,2.02-10.41,4.2Z"/>
    <path class="cls-1" d="M2397.11,493.45c.77-9.83-.18-22.58-10.57-26.9-10.84-4.52-27.09-3.4-33.71,7.42-1.98,3.24-2.47,8.92-2.81,9.26-.64.63-9.28-.32-11.4.06-.93-36.86,65.13-40.13,69.83-4.34,2.4,18.29-1.71,40.68.29,59.44,1.27,3.88,11.63,1.45,15.09,2.08v8.9h-19.71c-6.01,0-6.49-10.92-5.73-15.25-10.01,15.98-31.95,21.68-49.17,14.21-17.81-7.72-19.96-37.48-4.64-48.31,2.89-2.04,14.5-6.56,17.59-6.56h34.97ZM2397.11,503.62h-34.97c-6.11,0-14.8,6.98-15.81,13.42-3.19,20.42,11.29,27.7,29.21,22.85,16.27-4.41,23.57-20.3,21.56-36.27Z"/>
    <path class="cls-1" d="M1983.88,504.89h-69.29c-4.73,0,.66,17.92,2.07,20.81,8.51,17.46,36.7,19.94,49.93,7.01,2.95-2.88,5.99-11.21,6.63-11.38,2.82-.78,8.6.7,11.93.09-6.42,32.05-53.04,40.12-73.12,16.52-17.2-20.22-15.75-65.78,10.15-78.83,33.83-17.05,69.8,8.24,61.7,45.78ZM1972.44,495.99c5.16-43.11-62.23-41.62-59.76,0h59.76Z"/>
    <path class="cls-1" d="M2222.92,504.89h-69.29c-4.73,0,.66,17.92,2.07,20.81,8.51,17.46,36.7,19.94,49.93,7.01,2.95-2.88,5.99-11.21,6.63-11.38,2.82-.78,8.6.7,11.93.09-6.42,32.05-53.04,40.12-73.12,16.52-17.2-20.22-15.75-65.78,10.15-78.83,33.86-17.06,69.76,8.24,61.7,45.78ZM2211.47,495.99c5-42.98-62.12-41.74-59.76,0h59.76Z"/>
    <path class="cls-1" d="M1795.71,549.36h-11.45c-1.13-18.75,1.55-39.25-.01-57.8-1.41-16.66-8.88-27.8-27.18-25.93-11.03,1.13-26.2,14.8-26.2,25.91v57.81h-12.71v-92.76c2.02.34,10.99-.47,11.45,0,.59.59-.21,14.1,1.9,16.54,11.52-23.97,49.14-26.92,60.64-.89.67,1.52,3.57,9.61,3.57,10.41v66.71Z"/>
    <path class="cls-1" d="M2083.06,549.36h-12.71v-65.44c0-.49-3.11-7.83-3.77-8.94-8.01-13.66-30.34-11.25-40.13-.61-4.27,4.64-9.51,16.14-9.51,22.26v52.73h-11.44v-92.76c2.15.43,9.03-.72,10.04.14,1.58,1.34,1.46,13.57,1.42,16.38,10.14-15.29,28.35-23.95,46.44-16.57,11.01,4.49,19.66,19.56,19.66,31.18v61.63Z"/>
    <rect class="cls-1" x="1678.73" y="418.48" width="12.71" height="130.94"/>
    <path class="cls-1" d="M2289.03,456.6c.11,2.06.55,10.17-1.91,10.17h-31.15v82.59h-11.44v-87.04c0-1.28,4.44-5.72,5.72-5.72h38.78Z"/>
    <rect class="cls-1" x="2303.02" y="455.23" width="12.71" height="94.13"/>
    <rect class="cls-1" x="2108.49" y="456.6" width="11.44" height="92.76"/>
    <path class="cls-1" d="M2331.89,413.55c3.68-.98,7.95,5.05,5.57,8.16-.95,1.25-24.95,16.59-26.49,16.92-3.04.64-6.05-2.44-5.29-5.3.88-3.32,22.59-15.72,26.21-19.77Z"/>
  </g>
</svg>