<?xml version="1.0" encoding="UTF-8"?>
<svg id="Layer_1" data-name="Layer 1" xmlns="http://www.w3.org/2000/svg" viewBox="0 0 985.54 245.72">
  <defs>
    <style>
      .cls-1 {
        fill: #f2f2f2;
      }
    </style>
  </defs>
  <rect class="cls-1" x="808.53" y="156.08" width="4.32" height="6.72"/>
  <g>
    <g>
      <path class="cls-1" d="M468.21,129.46c-.05.24-.74,1.3-.96,1.44-2.08,1.26-21.14-.28-24.96,0l-.85-1.55-.13-97.78.46-1.94,45.82-.24,16.38,38.42,16.56-38.62,42.99-.27c1.53-.12,2.63.55,2.63,2.16l-.12,98.74c-.46,1.29-1.37,1.21-2.52,1.32-4.57.45-17.26.59-21.65,0-.63-.09-2.14-.61-2.14-1.22V51.99l-21.09,50.04c-.5.77-1.83.76-2.65.82-8,.67-16.9-.56-25,0l-1.45-.47-21.32-49.93v76.99Z"/>
      <g>
        <path class="cls-1" d="M288.69,65.9v-13.43h-55.2v55.17h55.2v-13.19c0-.19.94-.99,1.3-1.1,8.08.45,16.18,1.96,24.27,2.78.76.29.8,1.88.85,2.62.41,5.67-.27,11.94-.12,17.67-4.91,4.95-9.56,10.48-15.12,14.63l-77.16.08c-5.94-4.01-11.04-10.03-15.89-15.3l-.19-71.23c.04-.95.65-1.5,1.16-2.2,3.32-4.47,10.16-8.49,13.7-13.17h79.18c4.6,4.84,9.7,9.28,14.19,14.12l.12,19.36c-.27.81-.8,1.11-1.6,1.28-7.11,1.45-15.44,1.19-22.65,2.77l-2.05-.83Z"/>
        <path class="cls-1" d="M325.41,28.96h24.48c.05,0,.72.67.72.72v77.23c0,.05.67.72.72.72h53.76c.05,0,.72-.67.72-.72V29.68c0-.05.67-.72.72-.72h24.48c.08,0,.85.74.95.97l.24,85.61c-4.55,5.44-9.95,10.68-15.32,15.39l-76.56.19c-.95-.04-1.5-.65-2.2-1.16-4.55-3.38-8.84-9.79-13.46-13.42-1.07-28.18-.12-56.67-.48-84.96-.12-1.17.31-1.95,1.23-2.61Z"/>
      </g>
    </g>
    <g>
      <path d="M139.89,82.21c.32,0,.64,0,.96,0l23.06,23.75-28.1,28.53c-11.15-11.08-22.23-22.25-33.35-33.36-.51-.51-1.36-.6-1.45-.69s-.17-.94-.69-1.45c-5.56-5.56-11.28-10.98-16.59-16.78,18.71-.08,37.45.02,56.16,0Z"/>
      <path class="cls-1" d="M83.73,82.21c5.31,5.8,11.03,11.22,16.59,16.78.51.51.6,1.36.69,1.45l-33.77,34.02-28.16-28.51.72-1.22,22.34-22.04.96-.48c6.87-.02,13.77.03,20.64,0Z"/>
      <g>
        <path d="M119.73,25.13c-5.47,5.96-11.35,11.54-17.07,17.26-.51.51-.6,1.36-.69,1.45s-.94.17-1.45.69c-12.52,12.52-25.11,24.98-37.43,37.69l-.96.48-36.96-.48v-19.43L62.95,25.22c18.92-.11,37.86-.19,56.78-.1Z"/>
        <path class="cls-1" d="M119.73,25.13c6.87.03,13.77-.23,20.63.25l37.45,37.41v19.43c-12.31,0-24.65-.01-36.96,0-.32,0-.64,0-.96,0l-37.92-38.38c.09-.09.17-.94.69-1.45,5.72-5.72,11.6-11.3,17.07-17.26Z"/>
      </g>
    </g>
    <g>
      <path class="cls-1" d="M893.25,131.14c-.46-.1-1.36-.79-1.57-1.3l-6.8-26.79-44.6-.15-7.23,27.55-.84.6h-53.57c-12.56-11.25-24.08-23.61-36.08-35.44l-.94-.4-21.4,2.84c-.65,9.67.88,20.47.03,30.01-.1,1.07-.11,2.09-.98,2.86l-25.22-.23-.27-101.03,2.18-.7h90.3s1.92.48,1.92.48l14.06,13.78v33.9s-28.7,14.92-28.7,14.92l31.9,31.46,24.71-94.28,67.89.21,24.65,98.27c.3.66.26,3.48-.6,3.48h-28.8ZM775.41,51.99h-54.96c-.05,0-.72.67-.72.72v21.83l55.68-6.96v-15.59ZM846.45,79.33h32.64l-6.58-26.75c-.08-.65-.32-.57-.84-.62-1.96-.21-17.75-.26-18.52.25l-6.7,27.12Z"/>
      <path class="cls-1" d="M665.73,28.96c3.68,3.68,7.37,7.34,11.03,11.05,1.1,1.12,2.62,1.4,3.03,3.21v26.67s-.88,1.02-.88,1.02l-11.49,5.54c2.32,1.09,17.22,7.15,17.68,8.48l.1,30.17-.48,1.44c-4.62,3.63-8.9,10.03-13.46,13.42-.69.51-1.24,1.12-2.2,1.16l-91.89-.22c-.23-.11-.97-.87-.97-.95V29.68c0-.05.67-.72.72-.72h88.8ZM602.61,52.47v15.83h50.88v-15.83h-50.88ZM658.77,91.8h-56.16v15.83h56.16v-15.83Z"/>
    </g>
  </g>
  <g>
    <path class="cls-1" d="M727.89,166.16v3.84h-6.72c-.69,3.97,2.46,5.82,2.88,9.83.63,5.97-2.62,11.64-8.71,12.89-3.37.69-10.01-.89-11.68,1.27-5.52,7.14,14.71,4.97,17.23,5.32,7.86,1.08,9.52,11.06,3.13,15.52-5.36,3.74-22.17,4.26-26.11-1.67-2.55-3.83-1.16-9.9,3.58-11.02-.06-1.51-1.8-1.98-2.43-3.56-1.33-3.32,1.26-6.07,3.87-7.71-9.97-8.82-3.5-22.37,9.84-21.34.91.07,4.41,1.12,4.56.95.18-.2.32-4.32,2.64-4.32h7.92ZM710.51,172.98c-7.01.38-8.54,5.42-7.56,11.62,1.06,6.72,18.16,8.41,16.72-4.72-.53-4.85-4.48-7.15-9.16-6.9ZM702.12,204.68c-1.23,1.33-1.46,4.3-.75,5.97,1.98,4.62,17.33,4.17,20.72.8,2.87-2.85,1.52-7.69-2.63-8.33-2.64-.41-10.66-.34-13.41-.03-1.15.13-3.17.76-3.93,1.59Z"/>
    <path class="cls-1" d="M917.49,184.39c.29-3.71-.07-8.52-3.99-10.16s-10.23-1.28-12.73,2.8c-.75,1.22-.93,3.37-1.06,3.5-.24.24-3.5-.12-4.3.02-.35-13.91,24.59-15.15,26.36-1.64.91,6.91-.65,15.36.11,22.44.48,1.46,4.39.55,5.7.78v3.36h-7.44c-2.27,0-2.45-4.12-2.16-5.76-3.78,6.03-12.06,8.19-18.56,5.36s-7.54-14.15-1.75-18.24c1.09-.77,5.48-2.48,6.64-2.48h13.2ZM917.49,188.22h-13.2c-2.31,0-5.59,2.64-5.97,5.07-1.2,7.71,4.26,10.46,11.03,8.62,6.14-1.66,8.9-7.66,8.14-13.69Z"/>
    <path class="cls-1" d="M761.49,188.7h-26.16c-1.78,0,.25,6.76.78,7.86,3.21,6.59,13.86,7.53,18.85,2.65,1.11-1.09,2.26-4.23,2.5-4.3,1.06-.29,3.25.27,4.51.03-2.43,12.1-20.02,15.15-27.6,6.24-6.49-7.63-5.95-24.83,3.83-29.76,12.77-6.44,26.35,3.11,23.29,17.28ZM757.17,185.34c1.95-16.28-23.49-15.71-22.56,0h22.56Z"/>
    <path class="cls-1" d="M851.73,188.7h-26.16c-1.78,0,.25,6.76.78,7.86,3.21,6.59,13.86,7.53,18.85,2.65,1.11-1.09,2.26-4.23,2.5-4.3,1.06-.29,3.25.27,4.51.03-2.43,12.1-20.02,15.15-27.6,6.24-6.49-7.63-5.95-24.83,3.83-29.76,12.78-6.44,26.33,3.11,23.29,17.28ZM847.41,185.34c1.89-16.23-23.45-15.76-22.56,0h22.56Z"/>
    <path class="cls-1" d="M690.45,205.49h-4.32c-.43-7.08.59-14.82,0-21.82-.53-6.29-3.35-10.49-10.26-9.79-4.16.43-9.89,5.59-9.89,9.78v21.83h-4.8v-35.02c.76.13,4.15-.18,4.32,0,.22.22-.08,5.32.72,6.24,4.35-9.05,18.55-10.16,22.89-.34.25.57,1.35,3.63,1.35,3.93v25.18Z"/>
    <path class="cls-1" d="M798.93,205.49h-4.8v-24.7c0-.18-1.18-2.96-1.42-3.38-3.02-5.16-11.45-4.25-15.15-.23-1.61,1.75-3.59,6.09-3.59,8.41v19.91h-4.32v-35.02c.81.16,3.41-.27,3.79.05.59.51.55,5.12.54,6.18,3.83-5.77,10.7-9.04,17.53-6.25,4.16,1.7,7.42,7.38,7.42,11.77v23.27Z"/>
    <rect class="cls-1" x="646.29" y="156.08" width="4.8" height="49.43"/>
    <path class="cls-1" d="M876.69,170.47c.04.78.21,3.84-.72,3.84h-11.76v31.18h-4.32v-32.86c0-.48,1.68-2.16,2.16-2.16h14.64Z"/>
    <rect class="cls-1" x="881.97" y="169.96" width="4.8" height="35.54"/>
    <rect class="cls-1" x="808.53" y="170.47" width="4.32" height="35.02"/>
    <path class="cls-1" d="M892.87,154.22c1.39-.37,3,1.91,2.1,3.08-.36.47-9.42,6.26-10,6.39-1.15.24-2.28-.92-2-2,.33-1.25,8.53-5.94,9.89-7.46Z"/>
  </g>
</svg>